<svg width="20" height="20" viewBox="0 0 20 20" fill="none" xmlns="http://www.w3.org/2000/svg">
<path d="M17.8068 6.58154C17.8068 7.11501 17.3703 7.55148 16.8368 7.55148H2.61105C2.07759 7.55148 1.64111 7.11501 1.64111 6.58154V6.57346C1.64111 4.72249 3.13644 3.22717 4.9874 3.22717H14.4524C16.3034 3.22717 17.8068 4.73058 17.8068 6.58154Z" fill="#292D32"/>
<path d="M1.64111 9.73392V13.7834C1.64111 15.6344 3.13644 17.1297 4.9874 17.1297H14.4524C16.3034 17.1297 17.8068 15.6263 17.8068 13.7753V9.73392C17.8068 9.20045 17.3703 8.76398 16.8368 8.76398H2.61105C2.07759 8.76398 1.64111 9.20045 1.64111 9.73392ZM6.49081 14.422H4.87424C4.54285 14.422 4.26803 14.1471 4.26803 13.8157C4.26803 13.4843 4.54285 13.2095 4.87424 13.2095H6.49081C6.8222 13.2095 7.09702 13.4843 7.09702 13.8157C7.09702 14.1471 6.8222 14.422 6.49081 14.422ZM11.7446 14.422H8.51151C8.18012 14.422 7.9053 14.1471 7.9053 13.8157C7.9053 13.4843 8.18012 13.2095 8.51151 13.2095H11.7446C12.076 13.2095 12.3509 13.4843 12.3509 13.8157C12.3509 14.1471 12.076 14.422 11.7446 14.422Z" fill="#292D32"/>
</svg>
