<svg width="21" height="20" viewBox="0 0 21 20" fill="none" xmlns="http://www.w3.org/2000/svg">
<path d="M13.224 15.505C12.9007 15.505 12.634 15.2383 12.634 14.915C12.634 14.5916 12.9007 14.3249 13.224 14.3249C15.5034 14.3249 17.3625 12.4659 17.3625 10.1865C17.3625 7.90715 15.5034 6.0481 13.224 6.0481C10.9447 6.0481 9.08564 7.90715 9.08564 10.1865C9.08564 10.5098 8.81891 10.7765 8.49559 10.7765C8.17228 10.7765 7.90555 10.5098 7.90555 10.1865C7.90555 7.25244 10.29 4.85992 13.2321 4.85992C16.1743 4.85992 18.5506 7.24436 18.5506 10.1784C18.5506 13.1125 16.1662 15.505 13.224 15.505Z" fill="#292D32"/>
<path d="M7.71156 4.85205C8.03487 4.85205 8.3016 5.11878 8.3016 5.4421C8.3016 5.76541 8.03487 6.03214 7.71156 6.03214C5.4322 6.03214 3.57315 7.89119 3.57315 10.1705C3.57315 12.4499 5.4322 14.309 7.71156 14.309C9.99091 14.309 11.85 12.4499 11.85 10.1705C11.85 9.84723 12.1167 9.5805 12.44 9.5805C12.7633 9.5805 13.0301 9.84723 13.0301 10.1705C13.0301 13.1046 10.6456 15.4971 7.70348 15.4971C4.76133 15.4971 2.38498 13.1127 2.38498 10.1786C2.38498 7.24457 4.76941 4.85205 7.71156 4.85205Z" fill="#292D32"/>
</svg>
