<svg width="20" height="20" viewBox="0 0 20 20" fill="none" xmlns="http://www.w3.org/2000/svg">
<path d="M12.9242 10.1985H16.715C16.6504 13.9732 15.9068 14.5955 13.587 15.9696C13.3203 16.1313 13.2313 16.4707 13.393 16.7456C13.5547 17.0123 13.8941 17.1012 14.169 16.9395C16.9009 15.323 17.8547 14.3369 17.8547 9.63268V5.27603C17.8547 3.89387 16.7312 2.77844 15.3571 2.77844H12.9323C11.5097 2.77844 10.4347 3.85346 10.4347 5.27603V7.70088C10.4266 9.12346 11.5016 10.1985 12.9242 10.1985Z" fill="#292D32"/>
<path d="M4.17858 10.1985H7.96942C7.90476 13.9732 7.16114 14.5955 4.84137 15.9696C4.57463 16.1313 4.48572 16.4707 4.64738 16.7456C4.80904 17.0123 5.14852 17.1012 5.42333 16.9395C8.15532 15.323 9.1091 14.3369 9.1091 9.63268V5.27603C9.1091 3.89387 7.98559 2.77844 6.61151 2.77844H4.18666C2.756 2.77844 1.68098 3.85346 1.68098 5.27603V7.70088C1.68098 9.12346 2.756 10.1985 4.17858 10.1985Z" fill="#292D32"/>
</svg>
