<svg width="21" height="20" viewBox="0 0 21 20" fill="none" xmlns="http://www.w3.org/2000/svg">
<path d="M7.30742 9.60037H3.51657C3.58124 5.82569 4.32486 5.20331 6.64463 3.82923C6.91136 3.66758 7.00027 3.3281 6.83861 3.05328C6.68504 2.78655 6.33748 2.69764 6.07075 2.85929C3.33875 4.47586 2.38498 5.46196 2.38498 10.1581V14.5147C2.38498 15.8969 3.50849 17.0123 4.88257 17.0123H7.30742C8.72999 17.0123 9.80501 15.9373 9.80501 14.5147V12.0899C9.80501 10.6754 8.72999 9.60037 7.30742 9.60037Z" fill="#292D32"/>
<path d="M16.053 9.60037H12.2622C12.3268 5.82569 13.0705 5.20331 15.3902 3.82923C15.657 3.66758 15.7459 3.3281 15.5842 3.05328C15.4226 2.78655 15.0831 2.69764 14.8083 2.85929C12.0763 4.47586 11.1225 5.46196 11.1225 10.1662V14.5228C11.1225 15.905 12.246 17.0204 13.6201 17.0204H16.0449C17.4675 17.0204 18.5425 15.9454 18.5425 14.5228V12.098C18.5506 10.6754 17.4756 9.60037 16.053 9.60037Z" fill="#292D32"/>
</svg>
