<svg width="20" height="20" viewBox="0 0 20 20" fill="none" xmlns="http://www.w3.org/2000/svg">
<path d="M17.4463 4.44356H2.89723C2.56583 4.44356 2.29102 4.16875 2.29102 3.83735C2.29102 3.50596 2.56583 3.23114 2.89723 3.23114H17.4463C17.7777 3.23114 18.0525 3.50596 18.0525 3.83735C18.0525 4.16875 17.7777 4.44356 17.4463 4.44356Z" fill="#292D32"/>
<path d="M17.4463 8.48501H2.89723C2.56583 8.48501 2.29102 8.21019 2.29102 7.87879C2.29102 7.5474 2.56583 7.27258 2.89723 7.27258H17.4463C17.7777 7.27258 18.0525 7.5474 18.0525 7.87879C18.0525 8.21019 17.7777 8.48501 17.4463 8.48501Z" fill="#292D32"/>
<path d="M17.4463 12.5264H2.89723C2.56583 12.5264 2.29102 12.2516 2.29102 11.9202C2.29102 11.5888 2.56583 11.314 2.89723 11.314H17.4463C17.7777 11.314 18.0525 11.5888 18.0525 11.9202C18.0525 12.2516 17.7777 12.5264 17.4463 12.5264Z" fill="#292D32"/>
<path d="M17.4463 16.5678H2.89723C2.56583 16.5678 2.29102 16.293 2.29102 15.9616C2.29102 15.6302 2.56583 15.3554 2.89723 15.3554H17.4463C17.7777 15.3554 18.0525 15.6302 18.0525 15.9616C18.0525 16.293 17.7777 16.5678 17.4463 16.5678Z" fill="#292D32"/>
</svg>
