<svg width="20" height="20" viewBox="0 0 20 20" fill="none" xmlns="http://www.w3.org/2000/svg">
<path d="M17.9586 10.4007V12.0657C17.9586 12.5184 17.5867 12.8902 17.126 12.8902H15.566C14.6931 12.8902 13.8929 12.2516 13.8201 11.3787C13.7717 10.8695 13.9656 10.3926 14.3051 10.0612C14.6042 9.75405 15.0164 9.57623 15.469 9.57623H17.126C17.5867 9.57623 17.9586 9.94804 17.9586 10.4007Z" fill="#292D32"/>
<path d="M12.6078 11.4836C12.535 10.6349 12.8422 9.80242 13.4565 9.1962C13.9738 8.67082 14.6931 8.36367 15.4691 8.36367H15.9298C16.1561 8.36367 16.342 8.17777 16.3097 7.95145C16.0914 6.38338 14.7335 5.17096 13.1089 5.17096H5.02607C3.23976 5.17096 1.79294 6.61778 1.79294 8.40409V14.0621C1.79294 15.8484 3.23976 17.2952 5.02607 17.2952H13.1089C14.7416 17.2952 16.0914 16.0828 16.3097 14.5147C16.342 14.2884 16.1561 14.1025 15.9298 14.1025H15.5661C14.0303 14.1025 12.7371 12.9547 12.6078 11.4836ZM10.684 9.81858H5.83435C5.50295 9.81858 5.22814 9.55185 5.22814 9.21237C5.22814 8.87289 5.50295 8.60616 5.83435 8.60616H10.684C11.0154 8.60616 11.2903 8.88097 11.2903 9.21237C11.2903 9.54377 11.0154 9.81858 10.684 9.81858Z" fill="#292D32"/>
<path d="M11.6621 3.41714C11.8722 3.63538 11.6863 3.95869 11.3792 3.95869H5.05033C4.1693 3.95869 3.34486 4.21734 2.65782 4.6619C2.34259 4.86397 1.9142 4.64573 2.06777 4.29817C2.52041 3.23932 3.57926 2.50378 4.79976 2.50378H9.34231C10.2799 2.50378 11.1124 2.83518 11.6621 3.41714Z" fill="#292D32"/>
</svg>
