<svg width="20" height="20" viewBox="0 0 20 20" fill="none" xmlns="http://www.w3.org/2000/svg">
<path d="M7.43531 18.0106L9.31861 16.4263C9.6015 16.1838 10.0703 16.1838 10.3532 16.4263L12.2365 18.0106C12.673 18.2288 13.2064 18.0106 13.3681 17.5418L13.7237 16.4667C13.8127 16.2081 13.7237 15.8282 13.5298 15.6342L11.695 13.7913C11.5575 13.662 11.4525 13.4034 11.4525 13.2175V10.9138C11.4525 10.5744 11.703 10.4127 12.0183 10.542L15.9869 12.2556C16.6093 12.5223 17.1185 12.1909 17.1185 11.512V10.4693C17.1185 9.92775 16.7144 9.30537 16.2133 9.09521L11.695 7.14726C11.5656 7.09068 11.4525 6.92094 11.4525 6.77545V4.3506C11.4525 3.59081 10.8948 2.69362 10.2158 2.34606C9.97331 2.22482 9.69042 2.22482 9.44793 2.34606C8.76897 2.69362 8.21126 3.5989 8.21126 4.35868V6.78353C8.21126 6.92902 8.0981 7.09876 7.96877 7.15534L3.45856 9.1033C2.95742 9.30537 2.55328 9.92775 2.55328 10.4693V11.512C2.55328 12.1909 3.0625 12.5223 3.68488 12.2556L7.65354 10.542C7.96069 10.4046 8.21934 10.5744 8.21934 10.9138V13.2175C8.21934 13.4034 8.11427 13.662 7.98494 13.7913L6.15014 15.6342C5.95615 15.8282 5.86724 16.2 5.95615 16.4667L6.3118 17.5418C6.45729 18.0106 6.99075 18.2369 7.43531 18.0106Z" stroke="#292D32" stroke-width="1.21242" stroke-linecap="round" stroke-linejoin="round"/>
</svg>
