<svg width="21" height="20" viewBox="0 0 21 20" fill="none" xmlns="http://www.w3.org/2000/svg">
<path d="M14.0568 4.968L11.5511 3.02812C11.2278 2.70481 10.5004 2.54315 10.0154 2.54315H6.94392C5.97398 2.54315 4.92321 3.27061 4.68073 4.24054L2.74085 10.141C2.33671 11.2726 3.06416 12.2425 4.27659 12.2425H7.50971C7.99468 12.2425 8.39883 12.6467 8.318 13.2125L7.91386 15.799C7.7522 16.5264 8.23717 17.3347 8.96462 17.5772C9.61125 17.8197 10.4195 17.4964 10.7428 17.0114L14.0568 12.0809" stroke="#292D32" stroke-width="1.21242" stroke-miterlimit="10"/>
<path d="M18.179 4.96805V12.8892C18.179 14.0208 17.6941 14.425 16.5625 14.425H15.7542C14.6226 14.425 14.1376 14.0208 14.1376 12.8892V4.96805C14.1376 3.83645 14.6226 3.43231 15.7542 3.43231H16.5625C17.6941 3.43231 18.179 3.83645 18.179 4.96805Z" stroke="#292D32" stroke-width="1.21242" stroke-linecap="round" stroke-linejoin="round"/>
</svg>
