<svg width="20" height="20" viewBox="0 0 20 20" fill="none" xmlns="http://www.w3.org/2000/svg">
<path d="M18.0307 9.89947C18.0307 5.43775 14.4096 1.81665 9.94785 1.81665C5.48613 1.81665 1.86503 5.43775 1.86503 9.89947C1.86503 14.3612 5.48613 17.9823 9.94785 17.9823" stroke="#292D32" stroke-width="1.21242" stroke-linecap="round" stroke-linejoin="round"/>
<path d="M6.71473 2.625H7.52302C5.94687 7.34537 5.94687 12.4537 7.52302 17.1741H6.71473" stroke="#292D32" stroke-width="1.21242" stroke-linecap="round" stroke-linejoin="round"/>
<path d="M12.3727 2.625C13.1567 4.98518 13.5528 7.44236 13.5528 9.89954" stroke="#292D32" stroke-width="1.21242" stroke-linecap="round" stroke-linejoin="round"/>
<path d="M2.67332 13.1327V12.3244C5.0335 13.1084 7.49068 13.5045 9.94786 13.5045" stroke="#292D32" stroke-width="1.21242" stroke-linecap="round" stroke-linejoin="round"/>
<path d="M2.67332 7.47478C7.39369 5.89863 12.502 5.89863 17.2224 7.47478" stroke="#292D32" stroke-width="1.21242" stroke-linecap="round" stroke-linejoin="round"/>
<path d="M14.9592 17.4974C16.3877 17.4974 17.5457 16.3393 17.5457 14.9109C17.5457 13.4824 16.3877 12.3243 14.9592 12.3243C13.5307 12.3243 12.3727 13.4824 12.3727 14.9109C12.3727 16.3393 13.5307 17.4974 14.9592 17.4974Z" stroke="#292D32" stroke-width="1.21242" stroke-linecap="round" stroke-linejoin="round"/>
<path d="M18.0307 17.9822L17.2224 17.174" stroke="#292D32" stroke-width="1.21242" stroke-linecap="round" stroke-linejoin="round"/>
</svg>
