<svg width="20" height="20" viewBox="0 0 20 20" fill="none" xmlns="http://www.w3.org/2000/svg">
<path d="M12.1488 1.81665V9.89947C12.1488 10.7886 11.4213 11.516 10.5322 11.516H1.64111V5.04978C1.64111 3.26348 3.08794 1.81665 4.87424 1.81665H12.1488Z" stroke="#292D32" stroke-width="1.21242" stroke-linecap="round" stroke-linejoin="round"/>
<path d="M17.8068 11.5161V13.9409C17.8068 15.2827 16.7237 16.3657 15.3819 16.3657H14.5736C14.5736 15.4766 13.8462 14.7492 12.9571 14.7492C12.068 14.7492 11.3405 15.4766 11.3405 16.3657H8.10737C8.10737 15.4766 7.37992 14.7492 6.49081 14.7492C5.6017 14.7492 4.87424 15.4766 4.87424 16.3657H4.06596C2.72421 16.3657 1.64111 15.2827 1.64111 13.9409V11.5161H10.5322C11.4213 11.5161 12.1488 10.7886 12.1488 9.89949V4.24152H13.636C14.218 4.24152 14.7514 4.55675 15.0424 5.05789L16.4246 7.47464H15.3819C14.9374 7.47464 14.5736 7.83837 14.5736 8.28293V10.7078C14.5736 11.1523 14.9374 11.5161 15.3819 11.5161H17.8068Z" stroke="#292D32" stroke-width="1.21242" stroke-linecap="round" stroke-linejoin="round"/>
<path d="M6.4908 17.9823C7.38361 17.9823 8.10737 17.2585 8.10737 16.3657C8.10737 15.4729 7.38361 14.7491 6.4908 14.7491C5.598 14.7491 4.87424 15.4729 4.87424 16.3657C4.87424 17.2585 5.598 17.9823 6.4908 17.9823Z" stroke="#292D32" stroke-width="1.21242" stroke-linecap="round" stroke-linejoin="round"/>
<path d="M12.957 17.9823C13.8499 17.9823 14.5736 17.2585 14.5736 16.3657C14.5736 15.4729 13.8499 14.7491 12.957 14.7491C12.0642 14.7491 11.3405 15.4729 11.3405 16.3657C11.3405 17.2585 12.0642 17.9823 12.957 17.9823Z" stroke="#292D32" stroke-width="1.21242" stroke-linecap="round" stroke-linejoin="round"/>
<path d="M17.8067 9.89946V11.516H15.3819C14.9373 11.516 14.5736 11.1523 14.5736 10.7077V8.28289C14.5736 7.83834 14.9373 7.47461 15.3819 7.47461H16.4246L17.8067 9.89946Z" stroke="#292D32" stroke-width="1.21242" stroke-linecap="round" stroke-linejoin="round"/>
</svg>
