<svg width="21" height="21" viewBox="0 0 21 21" fill="none" xmlns="http://www.w3.org/2000/svg">
<path d="M6.66254 15.8083L9.16821 17.7482C9.49152 18.0715 10.219 18.2331 10.7039 18.2331H13.7754C14.7454 18.2331 15.7961 17.5057 16.0386 16.5358L17.9785 10.6353C18.3826 9.5037 17.6552 8.53376 16.4428 8.53376H13.2096C12.7247 8.53376 12.3205 8.12962 12.4013 7.56382L12.8055 4.97732C12.9671 4.24986 12.4822 3.44158 11.7547 3.1991C11.1081 2.95661 10.2998 3.27993 9.97649 3.7649L6.66254 8.69542" stroke="#292D32" stroke-width="1.21242" stroke-miterlimit="10"/>
<path d="M2.54028 15.8082V7.88705C2.54028 6.75546 3.02525 6.35132 4.15685 6.35132H4.96513C6.09672 6.35132 6.58169 6.75546 6.58169 7.88705V15.8082C6.58169 16.9398 6.09672 17.344 4.96513 17.344H4.15685C3.02525 17.344 2.54028 16.9398 2.54028 15.8082Z" stroke="#292D32" stroke-width="1.21242" stroke-linecap="round" stroke-linejoin="round"/>
</svg>
