<svg width="21" height="20" viewBox="0 0 21 20" fill="none" xmlns="http://www.w3.org/2000/svg">
<path d="M10.3558 12.7285C12.1421 12.7285 13.589 11.2816 13.589 9.49533V5.04978C13.589 3.26348 12.1421 1.81665 10.3558 1.81665C8.56952 1.81665 7.1227 3.26348 7.1227 5.04978V9.49533C7.1227 11.2816 8.56952 12.7285 10.3558 12.7285Z" stroke="#292D32" stroke-width="1.21242" stroke-linecap="round" stroke-linejoin="round"/>
<path d="M4.17245 7.99994V9.37402C4.17245 12.785 6.94486 15.5574 10.3558 15.5574C13.7668 15.5574 16.5392 12.785 16.5392 9.37402V7.99994" stroke="#292D32" stroke-width="1.21242" stroke-linecap="round" stroke-linejoin="round"/>
<path d="M9.2323 5.39744C9.95976 5.1307 10.7519 5.1307 11.4793 5.39744" stroke="#292D32" stroke-width="1.21242" stroke-linecap="round" stroke-linejoin="round"/>
<path d="M9.70921 7.11093C10.1376 6.99777 10.5822 6.99777 11.0105 7.11093" stroke="#292D32" stroke-width="1.21242" stroke-linecap="round" stroke-linejoin="round"/>
<path d="M10.3558 15.5574V17.9823" stroke="#292D32" stroke-width="1.21242" stroke-linecap="round" stroke-linejoin="round"/>
</svg>
