<svg width="20" height="20" viewBox="0 0 20 20" fill="none" xmlns="http://www.w3.org/2000/svg">
<path d="M13.2929 5.29226V5.04978C13.2929 3.26348 11.8461 1.81665 10.0598 1.81665C8.27352 1.81665 6.82669 3.26348 6.82669 5.04978V9.09119" stroke="#292D32" stroke-width="1.21242" stroke-linecap="round" stroke-linejoin="round"/>
<path d="M7.66728 11.6696C8.25733 12.3243 9.11411 12.7285 10.0598 12.7285C11.8461 12.7285 13.2929 11.2816 13.2929 9.49533V9.09119" stroke="#292D32" stroke-width="1.21242" stroke-linecap="round" stroke-linejoin="round"/>
<path d="M5.84061 13.9004C6.94795 14.9269 8.42711 15.5574 10.0598 15.5574C13.4708 15.5574 16.2432 12.785 16.2432 9.37402V7.99994" stroke="#292D32" stroke-width="1.21242" stroke-linecap="round" stroke-linejoin="round"/>
<path d="M3.87643 7.99994V9.37402C3.87643 10.2308 4.04617 11.0391 4.3614 11.7827" stroke="#292D32" stroke-width="1.21242" stroke-linecap="round" stroke-linejoin="round"/>
<path d="M16.5826 2.49567L3.53697 15.5494" stroke="#292D32" stroke-width="1.21242" stroke-linecap="round" stroke-linejoin="round"/>
<path d="M9.25153 2.62494V5.04979" stroke="#292D32" stroke-width="1.21242" stroke-linecap="round" stroke-linejoin="round"/>
<path d="M10.0598 15.5574V17.9823" stroke="#292D32" stroke-width="1.21242" stroke-linecap="round" stroke-linejoin="round"/>
</svg>
