<svg width="21" height="20" viewBox="0 0 21 20" fill="none" xmlns="http://www.w3.org/2000/svg">
<path d="M10.4441 2.75348C7.76864 2.75348 5.59436 4.92776 5.59436 7.60317V9.93911C5.59436 10.4322 5.38421 11.1839 5.13364 11.6042L4.20412 13.148C3.63024 14.1018 4.02629 15.1606 5.07706 15.5163C8.56076 16.6802 12.3193 16.6802 15.803 15.5163C16.781 15.1929 17.2094 14.0371 16.6759 13.148L15.7464 11.6042C15.5039 11.1839 15.2937 10.4322 15.2937 9.93911V7.60317C15.2937 4.93584 13.1114 2.75348 10.4441 2.75348Z" stroke="#292D32" stroke-width="1.21242" stroke-miterlimit="10" stroke-linecap="round"/>
<path d="M11.9394 2.98773C11.6888 2.91499 11.4302 2.85841 11.1634 2.82608C10.3875 2.72908 9.64385 2.78566 8.94873 2.98773C9.18313 2.38961 9.7651 1.9693 10.4441 1.9693C11.123 1.9693 11.705 2.38961 11.9394 2.98773Z" stroke="#292D32" stroke-width="1.21242" stroke-miterlimit="10" stroke-linecap="round" stroke-linejoin="round"/>
<path d="M12.8689 15.8072C12.8689 17.1409 11.7777 18.232 10.4441 18.232C9.78128 18.232 9.16699 17.9572 8.73051 17.5207C8.29404 17.0843 8.01923 16.47 8.01923 15.8072" stroke="#292D32" stroke-width="1.21242" stroke-miterlimit="10"/>
</svg>
