<svg width="20" height="20" viewBox="0 0 20 20" fill="none" xmlns="http://www.w3.org/2000/svg">
<path d="M10.357 6.63812H6.09739C4.59399 6.63812 4.25451 7.38984 4.06861 8.31936L3.38156 11.5929H13.0809L12.3939 8.31936C12.1918 7.38984 11.8604 6.63812 10.357 6.63812Z" stroke="#292D32" stroke-width="1.21242" stroke-linecap="round" stroke-linejoin="round"/>
<path d="M14.2772 16.9357C14.3419 17.647 13.7761 18.2613 13.0486 18.2613H11.9089C11.2542 18.2613 11.1653 17.9784 11.0441 17.6389L10.9228 17.2752C10.7531 16.7822 10.6399 16.4427 9.76699 16.4427H6.66319C5.79024 16.4427 5.66091 16.8226 5.50734 17.2752L5.3861 17.6389C5.27294 17.9865 5.18402 18.2613 4.52123 18.2613H3.38155C2.6541 18.2613 2.08023 17.647 2.15297 16.9357L2.49245 13.2419C2.58136 12.3285 2.75109 11.5849 4.34341 11.5849H12.0787C13.671 11.5849 13.8407 12.3285 13.9296 13.2419L14.2772 16.9357Z" stroke="#292D32" stroke-width="1.21242" stroke-linecap="round" stroke-linejoin="round"/>
<path d="M3.37347 9.77417H2.76726" stroke="#292D32" stroke-width="1.21242" stroke-linecap="round" stroke-linejoin="round"/>
<path d="M13.6791 9.77417H13.0728" stroke="#292D32" stroke-width="1.21242" stroke-linecap="round" stroke-linejoin="round"/>
<path d="M4.58589 14.0176H6.40453" stroke="#292D32" stroke-width="1.21242" stroke-linecap="round" stroke-linejoin="round"/>
<path d="M10.0418 14.0176H11.8604" stroke="#292D32" stroke-width="1.21242" stroke-linecap="round" stroke-linejoin="round"/>
<path d="M15.6675 7.54363C15.8938 7.01825 15.8129 6.30697 15.3926 5.68459C14.9804 5.06221 14.3499 4.71465 13.7761 4.72273" stroke="#292D32" stroke-width="1.21242" stroke-linecap="round" stroke-linejoin="round"/>
<path d="M18.1812 8.34371C18.5207 7.1232 18.2782 5.62791 17.4133 4.33466C16.5485 3.04141 15.2552 2.24928 13.9943 2.0957" stroke="#292D32" stroke-width="1.21242" stroke-linecap="round" stroke-linejoin="round"/>
</svg>
