<svg width="20" height="20" viewBox="0 0 20 20" fill="none" xmlns="http://www.w3.org/2000/svg">
<path d="M10.02 7.34948V2.90393" stroke="#292D32" stroke-width="1.21242" stroke-linecap="round" stroke-linejoin="round"/>
<path d="M10.02 17.4531V13.0075" stroke="#292D32" stroke-width="1.21242" stroke-linecap="round" stroke-linejoin="round"/>
<path d="M8.40338 2.90393H11.6365" stroke="#292D32" stroke-width="1.21242" stroke-linecap="round" stroke-linejoin="round"/>
<path d="M8.40338 17.4531H11.6365" stroke="#292D32" stroke-width="1.21242" stroke-linecap="round" stroke-linejoin="round"/>
<path d="M7.57087 8.76397L3.72345 6.5412" stroke="#292D32" stroke-width="1.21242" stroke-linecap="round" stroke-linejoin="round"/>
<path d="M16.3165 13.8158L12.4691 11.593" stroke="#292D32" stroke-width="1.21242" stroke-linecap="round" stroke-linejoin="round"/>
<path d="M2.91516 7.93959L4.53173 5.14294" stroke="#292D32" stroke-width="1.21242" stroke-linecap="round" stroke-linejoin="round"/>
<path d="M15.5082 15.2141L17.1247 12.4175" stroke="#292D32" stroke-width="1.21242" stroke-linecap="round" stroke-linejoin="round"/>
<path d="M12.849 10.1785C12.849 10.6958 12.7115 11.1727 12.4691 11.593C11.976 12.4417 11.0627 13.0075 10.02 13.0075C8.97728 13.0075 8.06392 12.4417 7.57087 11.593C7.32839 11.1727 7.19098 10.6958 7.19098 10.1785C7.19098 9.66117 7.32839 9.18429 7.57087 8.76398C8.06392 7.91528 8.97728 7.34949 10.02 7.34949C11.0627 7.34949 11.976 7.91528 12.4691 8.76398C12.7115 9.18429 12.849 9.66117 12.849 10.1785Z" stroke="#292D32" stroke-width="1.21242" stroke-linecap="round" stroke-linejoin="round"/>
<path d="M16.3165 6.5412L12.4691 8.76397" stroke="#292D32" stroke-width="1.21242" stroke-linecap="round" stroke-linejoin="round"/>
<path d="M7.57087 11.593L3.72345 13.8158" stroke="#292D32" stroke-width="1.21242" stroke-linecap="round" stroke-linejoin="round"/>
<path d="M17.1247 7.93959L15.5082 5.14294" stroke="#292D32" stroke-width="1.21242" stroke-linecap="round" stroke-linejoin="round"/>
<path d="M4.53173 15.2141L2.91516 12.4175" stroke="#292D32" stroke-width="1.21242" stroke-linecap="round" stroke-linejoin="round"/>
</svg>
