<svg width="20" height="20" viewBox="0 0 20 20" fill="none" xmlns="http://www.w3.org/2000/svg">
<path d="M7.20593 9.89952L9.15389 11.8556L13.0579 7.94348" stroke="#292D32" stroke-width="1.21242" stroke-linecap="round" stroke-linejoin="round"/>
<path d="M9.12156 2.18042C9.67927 1.70353 10.5926 1.70353 11.1584 2.18042L12.4355 3.27968C12.678 3.48984 13.1306 3.65958 13.454 3.65958H14.828C15.6848 3.65958 16.388 4.36278 16.388 5.21956V6.59364C16.388 6.90887 16.5578 7.36959 16.7679 7.61208L17.8672 8.88916C18.3441 9.44688 18.3441 10.3602 17.8672 10.926L16.7679 12.2031C16.5578 12.4456 16.388 12.8982 16.388 13.2216V14.5956C16.388 15.4524 15.6848 16.1556 14.828 16.1556H13.454C13.1387 16.1556 12.678 16.3254 12.4355 16.5355L11.1584 17.6348C10.6007 18.1117 9.68736 18.1117 9.12156 17.6348L7.84447 16.5355C7.60199 16.3254 7.14935 16.1556 6.82604 16.1556H5.42771C4.57093 16.1556 3.86772 15.4524 3.86772 14.5956V13.2135C3.86772 12.8982 3.69799 12.4456 3.49591 12.2031L2.40473 10.918C1.93593 10.3602 1.93593 9.45496 2.40473 8.89724L3.49591 7.61208C3.69799 7.36959 3.86772 6.91695 3.86772 6.60172V5.21148C3.86772 4.3547 4.57093 3.65149 5.42771 3.65149H6.82604C7.14127 3.65149 7.60199 3.48175 7.84447 3.2716L9.12156 2.18042Z" stroke="#292D32" stroke-width="1.21242" stroke-linecap="round" stroke-linejoin="round"/>
</svg>
