<svg width="20" height="20" viewBox="0 0 20 20" fill="none" xmlns="http://www.w3.org/2000/svg">
<path d="M10.4882 16.9843H5.37987C2.82569 16.9843 1.977 15.2869 1.977 13.5814V6.77567C1.977 4.2215 2.82569 3.3728 5.37987 3.3728H10.4882C13.0424 3.3728 13.8911 4.2215 13.8911 6.77567V13.5814C13.8911 16.1356 13.0343 16.9843 10.4882 16.9843Z" stroke="#292D32" stroke-width="1.21242" stroke-linecap="round" stroke-linejoin="round"/>
<path d="M16.1381 14.3008L13.8911 12.7247V7.62442L16.1381 6.04827C17.2374 5.2804 18.1426 5.74921 18.1426 7.09904V13.2581C18.1426 14.608 17.2374 15.0768 16.1381 14.3008Z" stroke="#292D32" stroke-width="1.21242" stroke-linecap="round" stroke-linejoin="round"/>
<path d="M9.65568 9.37022C10.3253 9.37022 10.8681 8.8274 10.8681 8.1578C10.8681 7.48819 10.3253 6.94537 9.65568 6.94537C8.98607 6.94537 8.44325 7.48819 8.44325 8.1578C8.44325 8.8274 8.98607 9.37022 9.65568 9.37022Z" stroke="#292D32" stroke-width="1.21242" stroke-linecap="round" stroke-linejoin="round"/>
</svg>
