<svg width="21" height="20" viewBox="0 0 21 20" fill="none" xmlns="http://www.w3.org/2000/svg">
<path d="M11.2991 9.41351H6.4494" stroke="#292D32" stroke-width="1.21242" stroke-linecap="round" stroke-linejoin="round"/>
<path d="M2.40799 9.41348V5.67922C2.40799 4.03032 3.74166 2.69666 5.39055 2.69666H9.93309C11.582 2.69666 12.9157 3.72317 12.9157 5.37207" stroke="#292D32" stroke-width="1.21242" stroke-linecap="round" stroke-linejoin="round"/>
<path d="M14.9202 10.2622C14.516 10.6502 14.3221 11.2483 14.4837 11.8626C14.6858 12.6143 15.4294 13.0912 16.2054 13.0912H16.9571V14.2632C16.9571 16.0495 15.5102 17.4964 13.7239 17.4964H5.64112C3.85481 17.4964 2.40799 16.0495 2.40799 14.2632V8.60526C2.40799 6.81896 3.85481 5.37213 5.64112 5.37213H13.7239C15.5022 5.37213 16.9571 6.82704 16.9571 8.60526V9.77723H16.0841C15.6315 9.77723 15.2192 9.95508 14.9202 10.2622Z" stroke="#292D32" stroke-width="1.21242" stroke-linecap="round" stroke-linejoin="round"/>
<path d="M18.5736 10.6019V12.2669C18.5736 12.7196 18.2018 13.0914 17.7411 13.0914H16.1811C15.3082 13.0914 14.508 12.4529 14.4352 11.5799C14.3867 11.0707 14.5807 10.5938 14.9202 10.2624C15.2192 9.95526 15.6315 9.7774 16.0841 9.7774H17.7411C18.2018 9.7774 18.5736 10.1492 18.5736 10.6019Z" stroke="#292D32" stroke-width="1.21242" stroke-linecap="round" stroke-linejoin="round"/>
</svg>
